<svg id="Capa_1" enable-background="new 0 0 512 512" height="512" viewBox="0 0 512 512" width="512" xmlns="http://www.w3.org/2000/svg"><g><path d="m99.927 463.535h69.427c4.143 0 7.5-3.358 7.5-7.5s-3.357-7.5-7.5-7.5h-69.427c-4.143 0-7.5 3.358-7.5 7.5s3.357 7.5 7.5 7.5zm0-35.607h26.965c4.143 0 7.5-3.358 7.5-7.5s-3.357-7.5-7.5-7.5h-26.965c-4.143 0-7.5 3.358-7.5 7.5s3.357 7.5 7.5 7.5zm82.978-330.746v12c0 4.142 3.357 7.5 7.5 7.5s7.5-3.358 7.5-7.5v-12c0-4.142-3.357-7.5-7.5-7.5-4.142 0-7.5 3.358-7.5 7.5zm95.317 6.272c-3.124-2.721-7.862-2.396-10.582.727-2.938 3.372-7.181 5.306-11.64 5.306s-8.701-1.934-11.64-5.306c-2.723-3.123-7.461-3.447-10.582-.727-3.122 2.722-3.448 7.459-.727 10.582 5.788 6.642 14.152 10.451 22.948 10.451s17.16-3.809 22.948-10.451c2.723-3.123 2.397-7.86-.725-10.582zm39.284 5.393c0-3.532 2.874-6.406 6.406-6.406s6.406 2.874 6.406 6.406c0 4.142 3.357 7.5 7.5 7.5s7.5-3.358 7.5-7.5c0-11.803-9.603-21.406-21.406-21.406-11.804 0-21.406 9.603-21.406 21.406 0 4.142 3.357 7.5 7.5 7.5 4.142 0 7.5-3.358 7.5-7.5zm91.491-83.741h-31.147v-5.036c0-11.066-9.003-20.07-20.069-20.07h-203.561c-11.066 0-20.07 9.003-20.07 20.07v5.037h-31.146c-31.241 0-56.658 25.417-56.658 56.658v279.937c0 4.142 3.357 7.5 7.5 7.5s7.5-3.358 7.5-7.5v-66.914h102.782c4.562 26.487 28.263 46.317 56.911 46.317 31.825 0 57.717-24.938 57.717-55.591 0-12.588-4.496-24.922-12.661-34.731-.737-.886-.737-2.171 0-3.057 8.165-9.809 12.661-22.143 12.661-34.731 0-30.653-25.892-55.591-57.717-55.591-28.649 0-52.351 19.83-56.911 46.317h-102.783v-121.957c0-22.97 18.688-41.658 41.658-41.658h31.146v5.036c0 11.066 9.004 20.07 20.07 20.07h203.562c11.066 0 20.069-9.003 20.069-20.07v-5.036h31.147c22.971 0 41.658 18.688 41.658 41.658v16.8c0 4.142 3.357 7.5 7.5 7.5s7.5-3.358 7.5-7.5v-16.8c0-31.241-25.417-56.658-56.658-56.658zm-238.129 193.614c4.031 0 7.342-3.187 7.494-7.216.832-21.926 19.577-39.102 42.676-39.102 23.554 0 42.717 18.209 42.717 40.591 0 9.22-3.178 17.912-9.19 25.134-5.365 6.446-5.365 15.804 0 22.25 6.013 7.223 9.19 15.914 9.19 25.135 0 22.382-19.163 40.591-42.717 40.591-23.098 0-41.844-17.175-42.676-39.102-.152-4.029-3.463-7.216-7.494-7.216h-109.523v-61.065zm191.983-173.577c0 2.795-2.274 5.07-5.069 5.07h-203.562c-2.796 0-5.07-2.274-5.07-5.07v-25.073c0-2.795 2.274-5.07 5.07-5.07h203.562c2.795 0 5.069 2.274 5.069 5.07zm95.304 81.498c-4.143 0-7.5 3.358-7.5 7.5v300.305l-56.478-56.477c15.504-21.955 12.768-52.736-7.49-72.994-22.539-22.538-58.374-23.25-80.122-1.503-8.901 8.901-14.443 20.803-15.604 33.512-.104 1.129-1.032 2.058-2.161 2.162-12.71 1.162-24.612 6.705-33.513 15.605-21.746 21.747-21.038 57.581 1.503 80.121 20.257 20.258 51.037 22.995 72.994 7.491l54.637 54.637h-281.418c-22.971 0-41.658-18.688-41.658-41.658v-57.212c0-4.142-3.357-7.5-7.5-7.5s-7.5 3.358-7.5 7.5v57.211c0 31.241 25.417 56.658 56.658 56.658h305.994c31.241 0 56.658-25.417 56.658-56.658 0-.159 0-321.201 0-321.201 0-4.141-3.357-7.499-7.5-7.499zm-49.158 370.359h-3.363l-70.01-70.01c-2.851-2.851-7.445-2.938-10.402-.197-16.092 14.917-41.492 13.806-57.825-2.527-16.905-16.904-17.15-43.261-1.502-58.908 6.52-6.52 14.912-10.418 24.271-11.274 8.352-.764 14.969-7.38 15.733-15.733 3.095-33.863 44.63-48.32 70.182-22.769 16.334 16.333 17.443 41.733 2.527 57.825-2.741 2.957-2.654 7.551.196 10.402l71.844 71.843c-.169 22.827-18.784 41.348-41.651 41.348z"/></g></svg>