<svg height="512" viewBox="0 0 60 60" width="512" xmlns="http://www.w3.org/2000/svg"><g id="040---Lung-Disease-X-Ray"><path id="Shape" d="m57 40.906c0-3.712.29-5.962-1.477-8.849l-7.523-12.239v-15.818c0-2.209139-1.790861-4-4-4h-40c-2.209139 0-4 1.790861-4 4v43c0 2.209139 1.790861 4 4 4h28.54c2.457085 2.7920768 5.8779659 4.553234 9.578 4.931.013.1 0 .04.511 1.873.3637963 1.2963813 1.5445437 2.1932755 2.891 2.196h11.48c.8858169.0001579 1.7264204-.3911706 2.2965552-1.0691219.5701348-.6779512.8115101-1.5732111.6594448-2.4458781zm-15.035-15.585c4.213 7.267 4.035 6.85 4.035 7.231v8.43c-1.4091673-2.2261692-2.4344285-4.673207-3.033-7.239-.1419372-.5340593-.6899407-.8519372-1.224-.71s-.8519372.6899407-.71 1.224c.1.387.216.807.344 1.252-.6681272 2.3541568-1.5380162 4.6463144-2.6 6.851-.966 1.986-.777 3.669-.777 6.64h-28c0-3.051.176-4.682-.781-6.639-1.0618593-2.2050842-1.93174322-4.4975629-2.6-6.852.128-.445.241-.865.344-1.252.14193718-.5340594-.17594065-1.0820628-.71-1.224s-1.08206282.1759406-1.224.71c-.59733136 2.565542-1.6212347 5.0125662-3.029 7.239v-24.547c1.64611129-1.476563 3.78896487-2.277276 6-2.242 4.18 0 10.259-3.24 10.932-7.827.4796137.91261112 1.1933487 1.68122219 2.068 2.227v6.048c-1.1229981-.7053171-2.5138282-.8366465-3.749-.354-4.969695 1.9523511-8.24143165 6.7435758-8.251 12.083v8.38c-.00292412 1.3710265.65773904 2.6587255 1.7731233 3.4559959 1.1153842.7972704 2.5476071 1.0055545 3.8438767.5590041l1.5-.521c4.1262979-1.4510646 6.8861029-5.3499957 6.883-9.724v-3.62c.3578951-.21162.6930025-.4595994 1-.74.3072442.2801007.6423195.5280565 1 .74v3.62c-.0035277 4.3743713 2.7563554 8.2738139 6.883 9.725l1.5.519c1.2961025.4464921 2.7281343.2383216 3.8434685-.5587145 1.1153342-.797036 1.7761315-2.0844354 1.7735315-3.4552855v-8.38c-.0096855-5.3390892-3.2808802-10.1301007-8.25-12.083-1.2354383-.4831474-2.6267986-.351803-3.75.354v-6.048c.8746513-.54577781 1.5883863-1.31438888 2.068-2.227.673 4.587 6.752 7.827 10.932 7.827 2.2110351-.035276 4.3538887.765437 6 2.242v1.814c-2.918-.696-6.056 3.403-4.035 7.072zm4.035 19.037v2.642c0 1.1045695-.8954305 2-2 2h-4c0-6.771-.085-3.189 2.479-10.348.8883233 2.0639465 2.0746196 3.9864136 3.521 5.706zm-16.32-42.072c-2.563 2.514-2.58 4.714-4.4 4.714-3.492 0-3.363.352-4.724-1.808-.6961332-1.16628061-1.5382701-2.23894659-2.506-3.192h11.9c-.087.1-.173.19-.27.286zm-2.68 23.495c.3254316.1052972.6603464.1786435 1 .219.5197069-.0003865.9524925-.398804.9957813-.9167051.0432888-.517901-.31735-.982637-.8297813-1.0692949-1.1175504-.2123764-2.1529162-.7345639-2.988-1.507-.6541038-.6449077-1.7048962-.6449077-2.359 0-.8337424.7736115-1.8692462 1.2956967-2.987 1.506-.5445528.0922316-.9112316.6084472-.819 1.153s.6084472.9112316 1.153.819c.281614-.0522675.5600561-.1203756.834-.204v2.739c.0035593 3.5219049-2.2159642 6.6625888-5.537 7.835l-1.5.52c-.684957.235507-1.4415599.1246389-2.0301514-.2974863s-.9362483-1.1032084-.9328486-1.8275137v-8.38c.0076271-4.5132636 2.7713656-8.5639187 6.971-10.217.6654843-.2603705 1.4157589-.1832076 2.0143167.2071648.5985579.3903725.9716559 1.04586 1.0016833 1.7598352.0005474.5176193-.212233 1.0125885-.5882289 1.3683371-.375996.3557485-.8819741.5408326-1.3987711.5116629-.5522847 0-1 .4477153-1 1s.4477153 1 1 1c1.0701541.0312983 2.1058561-.3800703 2.8628929-1.1371071s1.1684054-1.7927388 1.1371071-2.8628929v-9h2v9c-.0312983 1.0701541.3800703 2.1058561 1.1371071 2.8628929s1.7927388 1.1684054 2.8628929 1.1371071c.5522847 0 1-.4477153 1-1s-.4477153-1-1-1c-.5162818.0288646-1.0216779-.1560791-1.3973873-.5113572-.3757094-.355278-.5885943-.8495548-.5886127-1.3666428.0381214-.7105764.4127794-1.360389 1.0086369-1.7493954.5958575-.3890065 1.3414921-.4705785 2.0073631-.2196046 4.1992414 1.6534008 6.962535 5.7039848 6.97 10.217v8.38c.0033997.7243053-.3442571 1.4053885-.9328486 1.8275137s-1.3451944.5329933-2.0301514.2974863l-1.5-.519c-3.3213824-1.1725331-5.5409839-4.3137282-5.537-7.836zm19-21.781v9.907c-1.7952822-1.1325861-3.8773576-1.7273656-6-1.714-3.472 0-9-3.049-9-6.662v-1.731c.5594949-.53392183 1.0463365-1.13911157 1.448-1.8h11.552c1.1045695 0 2 .8954305 2 2zm-42-2h11.552c.3786458.62900309.8386137 1.20530784 1.368 1.714.107.1.08-.089.08 1.817 0 3.613-5.528 6.662-9 6.662-2.12264243-.0133656-4.20471776.5814139-6 1.714v-9.907c0-1.1045695.8954305-2 2-2zm-2 45v-2.642c1.44638041-1.7195864 2.63267671-3.6420535 3.521-5.706 2.591 7.235 2.479 3.627 2.479 10.348h-4c-1.1045695 0-2-.8954305-2-2zm55 11h-11.48c-.4492863.0002611-.8435913-.299149-.964-.732l-.468-1.681c-.1523814-.8726191-.8650361-1.5383349-1.746-1.631-2.5683932-.2745565-4.9980873-1.3030794-6.983-2.956h8.641c2.209139 0 4-1.790861 4-4 0-7.769-.023-14.565 0-14.465-.005-1.078-.061-.9-4.291-8.2-1.414-2.569 1.461-5.262 2.442-3.713l7.666 12.478c.7730967 1.2608855 1.1825138 2.7109765 1.183 4.19v3.775c0 .052.282 5.2-3.6 8.138-.3054667.2069317-.4721712.5652529-.4336945.9322.0384768.3669472.2758827.6828948.6176296.821962.3417469.1390673.7323043.0786569 1.0160649-.157162 1.5078923-1.1480933 2.6816934-2.6781776 3.4-4.432l1.986 10.468c.0481834.2898233-.0335228.5861721-.2234223.8103537-.1898995.2241815-.4687764.3535111-.7625777.3536463z"/><circle id="Oval" cx="14" cy="28" r="1"/><circle id="Oval" cx="14" cy="32" r="1"/><circle id="Oval" cx="18" cy="30" r="1"/><circle id="Oval" cx="16" cy="24" r="1"/><circle id="Oval" cx="34" cy="28" r="1"/><circle id="Oval" cx="34" cy="32" r="1"/><circle id="Oval" cx="30" cy="30" r="1"/><circle id="Oval" cx="32" cy="24" r="1"/></g></svg>