<svg xmlns="http://www.w3.org/2000/svg" viewBox="0 0 37.4 69.17"><defs><style>.cls-1{fill:#fff;}</style></defs><title>Asset 3</title><g id="Layer_2" data-name="Layer 2"><g id="Layer_1-2" data-name="Layer 1"><path class="cls-1" d="M36,0H27C16.94,0,10.43,6.68,10.43,17v7.85h-9A1.41,1.41,0,0,0,0,26.28V37.65a1.41,1.41,0,0,0,1.41,1.41h9v28.7a1.41,1.41,0,0,0,1.41,1.41H23.61A1.41,1.41,0,0,0,25,67.76V39.06H35.56A1.41,1.41,0,0,0,37,37.65V26.28a1.42,1.42,0,0,0-1.42-1.41H25V18.22c0-3.2.76-4.82,4.92-4.82H36A1.41,1.41,0,0,0,37.4,12V1.42A1.42,1.42,0,0,0,36,0Z"/></g></g></svg>