<svg xmlns="http://www.w3.org/2000/svg" viewBox="0 0 59.56 59.56"><defs><style>.cls-1{fill:#fff;}</style></defs><title>Asset 2</title><g id="Layer_2" data-name="Layer 2"><g id="Layer_1-2" data-name="Layer 1"><path class="cls-1" d="M43.13,0H16.44A16.45,16.45,0,0,0,0,16.44V43.13A16.45,16.45,0,0,0,16.44,59.56H43.13A16.45,16.45,0,0,0,59.56,43.13V16.44A16.45,16.45,0,0,0,43.13,0ZM54.28,43.13A11.16,11.16,0,0,1,43.13,54.28H16.44A11.17,11.17,0,0,1,5.28,43.13V16.44A11.18,11.18,0,0,1,16.44,5.28H43.13A11.17,11.17,0,0,1,54.28,16.44V43.13Z"/><path class="cls-1" d="M29.78,14.43A15.35,15.35,0,1,0,45.13,29.78,15.37,15.37,0,0,0,29.78,14.43Zm0,25.41A10.06,10.06,0,1,1,39.84,29.78,10.07,10.07,0,0,1,29.78,39.84Z"/><path class="cls-1" d="M45.77,10a3.89,3.89,0,1,0,2.74,1.14A3.87,3.87,0,0,0,45.77,10Z"/></g></g></svg>