<svg xmlns="http://www.w3.org/2000/svg" viewBox="0 0 71.53 58.09"><defs><style>.cls-1{fill:#fff;}</style></defs><title>Asset 1</title><g id="Layer_2" data-name="Layer 2"><g id="Layer_1-2" data-name="Layer 1"><path class="cls-1" d="M71.53,6.9a29.21,29.21,0,0,1-8.44,2.27,14.27,14.27,0,0,0,6.44-8.08,29,29,0,0,1-9.3,3.54,14.7,14.7,0,0,0-21.09-.34,14.15,14.15,0,0,0-4.28,10.37A16.43,16.43,0,0,0,35.22,18,40.78,40.78,0,0,1,18.36,13.5,41.55,41.55,0,0,1,5,2.68a14.36,14.36,0,0,0-2,7.39,14.14,14.14,0,0,0,1.78,7,14.58,14.58,0,0,0,4.76,5.22A14.55,14.55,0,0,1,2.9,20.42v.18a14.2,14.2,0,0,0,3.34,9.33A14.37,14.37,0,0,0,14.66,35a15.31,15.31,0,0,1-3.86.5A18.78,18.78,0,0,1,8,35.26,14.71,14.71,0,0,0,21.74,45.43a28.68,28.68,0,0,1-18.2,6.26A31.67,31.67,0,0,1,0,51.51a40.69,40.69,0,0,0,22.51,6.58,42.81,42.81,0,0,0,14.66-2.47A37.3,37.3,0,0,0,48.88,49a44.15,44.15,0,0,0,8.37-9.55A42.73,42.73,0,0,0,62.5,28.16a42,42,0,0,0,1.72-11.78c0-.84,0-1.48,0-1.9A30.83,30.83,0,0,0,71.53,6.9Z"/></g></g></svg>