<svg xmlns="http://www.w3.org/2000/svg" viewBox="0 0 166.46 273.81"><defs><style>.cls-1{fill:none;stroke:#231f20;stroke-miterlimit:10;stroke-width:4px;}.cls-2,.cls-3{fill:#231f20;}.cls-3{font-size:28px;font-family:Merriweather-Regular, Merriweather;}</style></defs><title>Asset 6</title><g id="Layer_2" data-name="Layer 2"><g id="Layer_1-2" data-name="Layer 1"><rect class="cls-1" x="26.05" y="2" width="94.94" height="135.63" rx="41.03"/><rect class="cls-1" x="66.46" y="22.17" width="12.1" height="42.35" rx="6.05"/><path class="cls-2" d="M34.06,151.51c3.67,2.69,7.2,5.54,10.75,8.37l5.27,4.31,5.2,4.37c3.48,2.91,6.87,5.91,10.3,8.88s6.78,6,10.12,9.07l-2.78.11c2.89-3,5.72-6.06,8.64-9s5.82-6,8.8-8.89,6-5.84,9-8.72,6.08-5.72,9.23-8.47c-2.54,3.32-5.19,6.54-7.85,9.76s-5.38,6.38-8.13,9.51-5.52,6.25-8.3,9.35-5.65,6.14-8.46,9.21l-1.31,1.43L73,189.45c-3.38-3-6.69-6.11-10-9.17s-6.62-6.19-9.86-9.36l-4.88-4.74-4.81-4.81C40.29,158.12,37.11,154.89,34.06,151.51Z"/><path class="cls-2" d="M34.36,179.12c3.67,2.7,7.2,5.54,10.75,8.37l5.27,4.31,5.2,4.38c3.48,2.91,6.87,5.91,10.3,8.88s6.78,6,10.12,9.06l-2.78.12c2.89-3,5.72-6.07,8.64-9s5.82-6,8.8-8.89,6-5.84,9-8.73,6.08-5.72,9.23-8.47c-2.54,3.33-5.19,6.55-7.85,9.77s-5.38,6.38-8.13,9.51-5.52,6.25-8.3,9.35-5.65,6.13-8.46,9.2l-1.31,1.43-1.47-1.31c-3.38-3-6.69-6.12-10-9.17s-6.62-6.19-9.86-9.36l-4.88-4.74L43.76,189C40.59,185.74,37.41,182.5,34.36,179.12Z"/><text class="cls-3" transform="translate(0 266.2)">Scroll Down</text></g></g></svg>